Coordinates
version=1
nRows=21
nColumns=33
inDegrees=yes

Units are S.I. units (second, meters, Newtons, ...)
Angles are in degrees.

endheader
time	ground_thorax_rot_x	ground_thorax_rot_y	ground_thorax_rot_z	ground_thorax_tx	ground_thorax_ty	ground_thorax_tz	clav_prot_r	clav_elev_r	scapula_abduction_r	scapula_elevation_r	scapula_upward_rot_r	scapula_winging_r	shoulder_elv_r	plane_of_elev_r	axial_rot_r	elbow_flexion_r	pro_sup_r	wrist_flex_r	wrist_dev_r	clav_prot_l	clav_elev_l	scapula_abduction_l	scapula_elevation_l	scapula_upward_rot_l	scapula_winging_l	shoulder_elv_l	plane_of_elev_l	axial_rot_l	elbow_flexion_l	pro_sup_l	wrist_flex_l	wrist_dev_l
      8.77000000	     34.82935450	     24.84296002	     28.16156969	   -181.63310254	    816.92608216	      9.17214929	     13.29929826	     38.61724788	     37.99753293	     45.00000000	    -35.59264518	   2070.39812443	  -2273.67132315	    147.15679055	   -126.25862579	   2171.92146775	     -0.92079237	     18.08998376	     10.07378868	      8.53885619	    -45.00000000	    -37.09951975	     45.00000000	    -45.00000000	  -2782.31431052	    435.52722995	     22.74935731	    -47.16534816	    732.39601721	     28.25991340	      4.27728149	    -20.35434629
      8.78000000	     34.59420356	     25.40219238	     28.96002149	   -177.78365996	    815.42433445	      9.11657954	     12.72440657	     38.83488248	     37.88679678	     45.00000000	    -35.49004502	   2070.22041572	  -2273.97475650	    146.95541772	   -125.72340114	   2171.84138317	      0.35438026	     18.22005917	     10.13650344	      8.27735483	    -45.00000000	    -37.10962623	     45.00000000	    -45.00000000	  -2782.33376336	    435.21664023	     22.71118440	    -48.41747954	    732.30609300	     26.40515467	      4.25185655	    -20.26370192
      8.79000000	     34.07862674	     26.02789086	     30.09655959	   -173.86304949	    813.84215813	      9.04327011	     11.73134693	     38.43777734	     37.54509627	     45.00000000	    -35.33689672	   2070.92793119	  -2273.92591513	    147.54134627	   -125.96640717	   2171.86605393	      1.14359289	     18.14243921	     10.34288522	      8.88727400	    -45.00000000	    -37.34038997	     45.00000000	    -45.00000000	  -2782.22837251	    434.86305105	     22.66110903	    -49.02580962	    731.94282979	     25.14571568	      4.81457951	    -20.22876988
      8.80000000	     34.04069122	     26.22766156	     30.44144558	   -169.87598870	    812.18512563	      8.95448576	     12.76308544	     38.79345616	     37.74157651	     45.00000000	    -35.63608761	   2070.57484798	  -2274.32287389	    147.02277929	   -125.72457280	   2171.82804884	      2.13281256	     18.10728784	     10.44041246	      8.25510846	    -45.00000000	    -37.08265018	     45.00000000	    -45.00000000	  -2782.66938585	    434.76599065	     22.55418164	    -49.25745927	    731.97439787	     23.53945549	      5.18340586	    -20.23173744
      8.81000000	     33.58506976	     26.80125134	     31.50567084	   -165.82464711	    810.46157368	      8.85550410	     12.24687609	     38.58439676	     37.53418433	     45.00000000	    -35.74371454	   2070.94688039	  -2274.45955084	    147.23250319	   -125.76399952	   2171.72909566	      2.90688200	     17.99661296	     10.63918412	      8.67765761	    -45.00000000	    -37.10671325	     45.00000000	    -45.00000000	  -2782.68439446	    434.39688568	     22.47256685	    -49.91454417	    731.62554741	     22.37739477	      5.65296132	    -20.12937065
      8.82000000	     33.39849152	     27.12152998	     32.14652370	   -161.70958614	    808.67881023	      8.75353325	     12.91638796	     38.82063858	     37.58651122	     45.00000000	    -35.90676670	   2070.91291852	  -2274.73612911	    147.09287941	   -125.60812138	   2171.67909352	      3.77991316	     17.94392003	     10.76480013	      8.16095701	    -45.00000000	    -36.99380532	     45.00000000	    -45.00000000	  -2783.01728749	    434.26094750	     22.25176663	    -50.36308369	    731.60059104	     21.07847805	      6.02272297	    -20.07933929
      8.83000000	     33.09152816	     27.52789699	     32.96128086	   -157.53429101	    806.84707514	      8.65702525	     13.18696219	     38.92512101	     37.58116815	     45.00000000	    -36.06240751	   2071.04033694	  -2275.00333737	    147.16955099	   -125.47627799	   2171.65186012	      4.65820610	     17.88915414	     10.92080171	      7.97028356	    -45.00000000	    -36.95146283	     45.00000000	    -45.00000000	  -2783.27417292	    434.04055995	     21.97090696	    -50.92522045	    731.50276412	     19.88079760	      6.42073055	    -19.99958288
      8.84000000	     32.53633136	     28.15237330	     34.16540251	   -153.30508068	    804.97743653	      8.57358245	     12.52698800	     38.58897226	     37.23120083	     45.00000000	    -36.31780650	   2071.47323747	  -2275.08621765	    147.33323142	   -125.46916660	   2171.53883475	      5.28155512	     17.75508743	     11.15182831	      8.56416553	    -45.00000000	    -37.04017009	     45.00000000	    -45.00000000	  -2783.17426647	    433.62646532	     21.88311458	    -51.86910552	    731.20924090	     19.20390493	      6.86374467	    -19.86622681
      8.85000000	     32.32196580	     28.47508743	     34.83426292	   -149.02366227	    803.07807832	      8.50945410	     13.12857098	     38.77037710	     37.25591274	     45.00000000	    -36.55444260	   2071.47076871	  -2275.40381008	    147.24536240	   -125.31163010	   2171.49057972	      5.97400494	     17.68931597	     11.32949598	      8.07127596	    -45.00000000	    -36.88918382	     45.00000000	    -45.00000000	  -2783.47907561	    433.45857293	     21.62662923	    -52.52447848	    731.23529824	     18.48154693	      7.12244335	    -19.78946042
      8.86000000	     31.91172641	     28.92059348	     35.79598435	   -144.69846653	    801.16030352	      8.46727505	     13.23299782	     38.78133628	     37.10136348	     45.00000000	    -36.79234234	   2071.67802962	  -2275.64744482	    147.30145281	   -125.13754134	   2171.38021268	      6.62975358	     17.59574177	     11.52335488	      8.01787441	    -45.00000000	    -36.84634817	     45.00000000	    -45.00000000	  -2783.65918048	    433.19723221	     21.34227475	    -53.32888724	    731.11500904	     17.96753542	      7.41031912	    -19.67789186
      8.87000000	     31.43406554	     29.37897016	     36.89518040	   -140.33293012	    799.23248932	      8.44752035	     13.14816162	     38.67462334	     37.00113776	     45.00000000	    -37.19543428	   2071.92790336	  -2275.86523093	    147.42967964	   -124.99071537	   2171.27970779	      7.20757124	     17.49819203	     11.72504914	      8.12256431	    -45.00000000	    -36.84225412	     45.00000000	    -45.00000000	  -2783.69183759	    432.89090258	     21.06933733	    -54.34883863	    730.98809904	     17.70103727	      7.69076901	    -19.56860040
      8.88000000	     30.85295842	     29.96383883	     38.15811911	   -135.93536491	    797.30931018	      8.44605912	     12.84296552	     38.40973638	     36.75394010	     45.00000000	    -37.64203153	   2072.33306151	  -2275.97577198	    147.66225399	   -124.91976992	   2171.16003198	      7.68225385	     17.38076313	     11.94678242	      8.44357624	    -45.00000000	    -36.85223826	     45.00000000	    -45.00000000	  -2783.62303998	    432.52078888	     20.84364286	    -55.42877497	    730.80473343	     17.67384303	      8.00514752	    -19.44390838
      8.89000000	     30.39083179	     30.40007787	     39.22504507	   -131.50361557	    795.39560750	      8.46148214	     13.01600146	     38.34693580	     36.61656731	     45.00000000	    -38.07207603	   2072.58504091	  -2276.15270095	    147.74777254	   -124.74400849	   2171.06215950	      8.16646956	     17.28961634	     12.14449387	      8.31366106	    -45.00000000	    -36.77422304	     45.00000000	    -45.00000000	  -2783.67276167	    432.27976138	     20.52663223	    -56.50117328	    730.76706493	     17.75857706	      8.18169566	    -19.35548233
      8.90000000	     29.86509477	     30.87318665	     40.37045429	   -127.05004974	    793.50308212	      8.49327351	     13.09722069	     38.28907014	     36.39993792	     45.00000000	    -38.48513660	   2072.86319242	  -2276.34828247	    147.89815207	   -124.49155392	   2170.87028819	      8.68304846	     17.18021832	     12.34168484	      8.25856082	    -45.00000000	    -36.67922829	     45.00000000	    -45.00000000	  -2783.76592145	    431.99618343	     20.19407323	    -57.59450862	    730.67141853	     17.97873121	      8.34306741	    -19.26508021
      8.91000000	     29.43576033	     31.25320950	     41.29779259	   -122.57985726	    791.63671880	      8.54374378	     13.17256691	     38.29147566	     36.23824434	     45.00000000	    -38.80835242	   2073.03451156	  -2276.64994191	    147.90983631	   -124.18424764	   2170.75147200	      9.28649963	     17.09945874	     12.50018660	      8.17994783	    -45.00000000	    -36.64757114	     45.00000000	    -45.00000000	  -2783.90049252	    431.76369581	     19.87614790	    -58.61125899	    730.58232945	     18.32047394	      8.45677059	    -19.19989813
      8.92000000	     28.80371037	     31.78936705	     42.55285085	   -118.10455915	    789.80912578	      8.61207810	     13.17603703	     38.10494869	     36.01662007	     45.00000000	    -39.42762385	   2073.36599525	  -2276.80230098	    148.07483441	   -123.97361536	   2170.53514977	      9.86523999	     16.99176511	     12.64455190	      8.22669067	    -45.00000000	    -36.59121130	     45.00000000	    -45.00000000	  -2783.90551885	    431.47974939	     19.54379409	    -59.84832711	    730.46407282	     18.81296850	      8.63808809	    -19.13546890
      8.93000000	     28.23407395	     32.17864939	     43.67548761	   -113.63738206	    788.03029392	      8.69899991	     13.24873346	     38.03903727	     35.82082494	     45.00000000	    -39.88159885	   2073.67174726	  -2277.00855853	    148.19012029	   -123.63534158	   2170.36329138	     10.50528901	     16.90327009	     12.77051474	      8.16627842	    -45.00000000	    -36.55109255	     45.00000000	    -45.00000000	  -2783.96150761	    431.27552932	     19.16217337	    -61.01433281	    730.32479479	     19.38949810	      8.72875395	    -19.07956088
      8.94000000	     27.71088282	     32.52397172	     44.76532438	   -109.18381618	    786.31121102	      8.80222031	     13.35427995	     38.00247382	     35.65145496	     45.00000000	    -40.29175930	   2073.86867831	  -2277.27598072	    148.22517266	   -123.23150811	   2170.20816438	     11.21323133	     16.83225612	     12.83568046	      8.07956987	    -45.00000000	    -36.44073560	     45.00000000	    -45.00000000	  -2784.03269826	    431.01597792	     18.76928370	    -62.17875702	    730.20448962	     20.07061881	      8.79125466	    -19.05303890
      8.95000000	     27.14388519	     32.90193513	     45.83796040	   -104.75355680	    784.66408098	      8.91888388	     13.43327679	     37.95113054	     35.39723509	     45.00000000	    -40.67721604	   2074.09433109	  -2277.54320363	    148.30713965	   -122.77961131	   2170.07409541	     11.99596040	     16.77290636	     12.86231177	      8.00541954	    -45.00000000	    -36.32652785	     45.00000000	    -45.00000000	  -2784.10377210	    430.79974865	     18.40780619	    -63.36769449	    730.08347194	     20.84928976	      8.83287822	    -19.03918931
      8.96000000	     26.45584434	     33.26650034	     47.11305919	   -100.35193398	    783.10278630	      9.04441451	     13.31123520	     37.78114571	     35.20034011	     45.00000000	    -41.21334210	   2074.44186116	  -2277.68827892	    148.46399400	   -122.24328979	   2169.91809716	     12.79421053	     16.70395549	     12.88670174	      8.12108214	    -45.00000000	    -36.39522432	     45.00000000	    -45.00000000	  -2784.02639262	    430.61437441	     17.96370791	    -64.67774074	    729.98545711	     21.66882253	      8.92191301	    -19.04139232
      8.97000000	     25.84213412	     33.72932392	     48.19036091	    -95.99540645	    781.64094255	      9.17851838	     13.49838659	     37.71061444	     34.91223669	     45.00000000	    -41.66389527	   2074.68938479	  -2277.88812531	    148.61940034	   -121.73288175	   2169.74096916	     13.64437377	     16.64399090	     12.86401091	      7.96750105	    -45.00000000	    -36.24855974	     45.00000000	    -45.00000000	  -2784.15199261	    430.44677960	     17.57296441	    -65.93084312	    729.92206228	     22.48515602	      8.92732636	    -19.05166363
